<?xml version="1.0" encoding="UTF-8" standalone="no"?>
<svg
   xmlns:dc="http://purl.org/dc/elements/1.1/"
   xmlns:cc="http://creativecommons.org/ns#"
   xmlns:rdf="http://www.w3.org/1999/02/22-rdf-syntax-ns#"
   xmlns:svg="http://www.w3.org/2000/svg"
   xmlns="http://www.w3.org/2000/svg"
   xmlns:sodipodi="http://sodipodi.sourceforge.net/DTD/sodipodi-0.dtd"
   xmlns:inkscape="http://www.inkscape.org/namespaces/inkscape"
   sodipodi:docname="spring.svg"
   inkscape:version="1.0 (1.0+r73+1)"
   id="svg2511"
   version="1.1"
   viewBox="0 0 210 297"
   height="297mm"
   width="210mm">
  <defs
     id="defs2505" />
  <sodipodi:namedview
     inkscape:snap-midpoints="true"
     inkscape:window-maximized="1"
     inkscape:window-y="27"
     inkscape:window-x="1987"
     inkscape:window-height="1016"
     inkscape:window-width="1853"
     showgrid="true"
     inkscape:document-rotation="0"
     inkscape:current-layer="layer1"
     inkscape:document-units="mm"
     inkscape:cy="534.66343"
     inkscape:cx="317.88394"
     inkscape:zoom="0.98994949"
     inkscape:pageshadow="2"
     inkscape:pageopacity="0.0"
     borderopacity="1.0"
     bordercolor="#666666"
     pagecolor="#ffffff"
     id="base" />
  <metadata
     id="metadata2508">
    <rdf:RDF>
      <cc:Work
         rdf:about="">
        <dc:format>image/svg+xml</dc:format>
        <dc:type
           rdf:resource="http://purl.org/dc/dcmitype/StillImage" />
        <dc:title></dc:title>
      </cc:Work>
    </rdf:RDF>
  </metadata>
  <g
     id="layer1"
     inkscape:groupmode="layer"
     inkscape:label="Layer 1">
    <g
       transform="matrix(0,0.6139901,-1,0,257.46437,85.560556)"
       id="g3183">
      <path
         sodipodi:nodetypes="cscsc"
         d="m 71.656636,158.8701 c 0.007,-9.97808 2.22765,-18.05215 4.96388,-18.04508 2.73622,0.007 4.95412,8.09262 4.95326,18.06867 -0.0144,9.97151 -3.63823,18.04192 -8.10267,18.03485 -4.46444,-0.007 -8.08316,-8.08894 -8.08763,-18.06253"
         style="fill:none;fill-opacity:0.34902;stroke:#000000;stroke-width:0.26413;stroke-linejoin:bevel;stroke-miterlimit:4;stroke-dasharray:none;stroke-opacity:1"
         id="path3098" />
      <path
         id="path3098-3"
         style="fill:none;fill-opacity:0.34902;stroke:#000000;stroke-width:0.26413;stroke-linejoin:bevel;stroke-miterlimit:4;stroke-dasharray:none;stroke-opacity:1"
         d="m 77.929789,158.87418 c 0.007,-9.97808 2.22765,-18.05214 4.96388,-18.04507 2.73622,0.007 4.95412,8.09261 4.95326,18.06867 -0.0144,9.97151 -3.63823,18.04192 -8.10267,18.03485 -4.46444,-0.007 -8.08316,-8.08895 -8.08763,-18.06253"
         sodipodi:nodetypes="cscsc" />
      <path
         id="path3098-6"
         style="fill:none;fill-opacity:0.34902;stroke:#000000;stroke-width:0.26413;stroke-linejoin:bevel;stroke-miterlimit:4;stroke-dasharray:none;stroke-opacity:1"
         d="m 84.20294,158.87827 c 0.007,-9.97808 2.22766,-18.05214 4.96389,-18.04507 2.73622,0.007 4.95412,8.09261 4.95326,18.06867 -0.0144,9.97151 -3.63824,18.04192 -8.10268,18.03485 -4.46443,-0.007 -8.08315,-8.08895 -8.08762,-18.06254"
         sodipodi:nodetypes="cscsc" />
      <path
         sodipodi:nodetypes="cscsc"
         d="m 90.476099,158.88236 c 0.007,-9.97808 2.22765,-18.05215 4.96389,-18.04508 2.73622,0.007 4.954111,8.09262 4.953261,18.06867 -0.0144,9.97152 -3.638241,18.04192 -8.102681,18.03485 -4.46443,-0.007 -8.08315,-8.08894 -8.08762,-18.06253"
         style="fill:none;fill-opacity:0.34902;stroke:#000000;stroke-width:0.26413;stroke-linejoin:bevel;stroke-miterlimit:4;stroke-dasharray:none;stroke-opacity:1"
         id="path3098-6-5" />
      <path
         sodipodi:nodetypes="cscsc"
         d="m 96.74925,158.88644 c 0.007,-9.97807 2.22765,-18.05214 4.96389,-18.04507 2.73622,0.007 4.95411,8.09262 4.95326,18.06867 -0.0144,9.97151 -3.63824,18.04192 -8.10268,18.03485 -4.46443,-0.007 -8.08315,-8.08895 -8.08762,-18.06253"
         style="fill:none;fill-opacity:0.34902;stroke:#000000;stroke-width:0.26413;stroke-linejoin:bevel;stroke-miterlimit:4;stroke-dasharray:none;stroke-opacity:1"
         id="path3098-6-3" />
      <path
         sodipodi:nodetypes="cscsc"
         d="m 103.0224,158.89053 c 0.007,-9.97808 2.22765,-18.05215 4.96389,-18.04507 2.73622,0.007 4.95412,8.09261 4.95326,18.06867 -0.0144,9.97151 -3.63824,18.04192 -8.10268,18.03485 -4.46443,-0.007 -8.08315,-8.08895 -8.08762,-18.06254"
         style="fill:none;fill-opacity:0.34902;stroke:#000000;stroke-width:0.26413;stroke-linejoin:bevel;stroke-miterlimit:4;stroke-dasharray:none;stroke-opacity:1"
         id="path3098-6-56" />
      <path
         sodipodi:nodetypes="cscsc"
         d="m 109.29555,158.89462 c 0.007,-9.97808 2.22765,-18.05215 4.96389,-18.04508 2.73622,0.007 4.95411,8.09262 4.95326,18.06867 -0.0144,9.97152 -3.63824,18.04193 -8.10268,18.03485 -4.46443,-0.007 -8.08315,-8.08894 -8.08762,-18.06253"
         style="fill:none;fill-opacity:0.34902;stroke:#000000;stroke-width:0.26413;stroke-linejoin:bevel;stroke-miterlimit:4;stroke-dasharray:none;stroke-opacity:1"
         id="path3098-6-2" />
      <path
         sodipodi:nodetypes="cscsc"
         d="m 115.56871,158.8987 c 0.007,-9.97808 2.22765,-18.05215 4.96389,-18.04508 2.73621,0.007 4.95411,8.09262 4.95326,18.06867 -0.0144,9.97152 -3.63824,18.04194 -8.10268,18.03486 -4.46443,-0.007 -8.08315,-8.08895 -8.08763,-18.06254"
         style="fill:none;fill-opacity:0.34902;stroke:#000000;stroke-width:0.26413;stroke-linejoin:bevel;stroke-miterlimit:4;stroke-dasharray:none;stroke-opacity:1"
         id="path3098-6-9" />
      <path
         sodipodi:nodetypes="cscsc"
         d="m 121.84187,158.9028 c 0.007,-9.97808 2.22765,-18.05215 4.96388,-18.04508 2.73623,0.007 4.95412,8.09262 4.95326,18.06867 -0.0144,9.97152 -3.63823,18.04193 -8.10267,18.03485 -4.46444,-0.007 -8.08316,-8.08894 -8.08763,-18.06253"
         style="fill:none;fill-opacity:0.34902;stroke:#000000;stroke-width:0.26413;stroke-linejoin:bevel;stroke-miterlimit:4;stroke-dasharray:none;stroke-opacity:1"
         id="path3098-6-1" />
    </g>
    <path
       id="path3098-6-27"
       style="fill:none;fill-opacity:0.34902;stroke:#000000;stroke-width:0.499999;stroke-linejoin:bevel;stroke-miterlimit:4;stroke-dasharray:none;stroke-opacity:1"
       d="m 22.495297,79.63359 c 0.0124,-18.994221 4.19348,-34.363971 9.34435,-34.350511 5.150849,0.0135 9.325961,15.40506 9.32435,34.39543 -0.0271,18.981721 -6.84886,34.344511 -15.25302,34.331051 -8.404146,-0.0135 -15.216266,-15.398079 -15.224686,-34.383751"
       sodipodi:nodetypes="cscsc" />
  </g>
</svg>
